@startuml
'https://plantuml.com/object-diagram

class Stw {
    Stellwerk
}

class Bf {
    Bahnhof
}

class Bft {
    Bahnhofteil
}

class Bs {
    Bahnsteig
}

class Gl {
    {field} Gleis / Haltepunkt
}

class Agl {
    Anschlussgleis
}

class Anst {
    Anschlussstelle
}

note right of Stw : wie im Sim
note left of Bf : Name wählbar\nkeine Entsprechung im Sim
note left of Bft : Name wählbar\nGruppierung nach Sim
note left of Bs : Name wählbar\nkeine Entsprechung im Sim
note left of Gl : wie im Sim

note right of Anst : Name wählbar\nkeine Entsprechung im Sim
note right of Agl : wie im Sim

Stw "1" *-- "*" Bf
Bf "1" *-- "*" Bft
Bft "1" *-- "*" Bs
Bs "1" *-- "*" Gl

Stw "1" *-- "*" Anst
Anst "1" *-- "*" Agl

Bf . Anst
Gl . Agl

@enduml
